<?xml version="1.0" encoding="utf-8"?>
<!DOCTYPE svg PUBLIC "-//W3C//DTD SVG 1.1//EN" "http://www.w3.org/Graphics/SVG/1.1/DTD/svg11.dtd">
<svg version="1.1" id="Capa_1" xmlns="http://www.w3.org/2000/svg" xmlns:xlink="http://www.w3.org/1999/xlink" x="0px" y="0px"
	 viewBox="0 0 1008 612" enable-background="new 0 0 1008 612" xml:space="preserve">
<g>
	<path fill="#FFFFFF" d="M319.4,215.5l17,73.5l3.7,20.5l3.7-20l14.5-74h28.3l15.3,73.5l3.9,20.5l4-19.7l17.1-74.3h27.3L418,343.9
		h-25.7l-15.5-75.1l-4.5-24.8l-4.5,24.8l-15.5,75.1h-24.9l-36.4-128.4H319.4z"/>
	<path fill="#FFFFFF" d="M492.3,237.6h-25.2v-22.9h25.2V237.6z M467.1,248.9h25.2v95h-25.2V248.9z"/>
	<path fill="#FFFFFF" d="M573.2,283c-0.5-3.5-1.7-6.7-3.6-9.6c-2.8-3.8-7.1-5.8-13-5.8c-8.4,0-14.1,4.2-17.2,12.5
		c-1.6,4.4-2.4,10.3-2.4,17.6c0,7,0.8,12.5,2.4,16.8c3,7.9,8.6,11.8,16.8,11.8c5.8,0,10-1.6,12.4-4.7c2.4-3.1,3.9-7.2,4.5-12.2h25.4
		c-0.6,7.6-3.3,14.7-8.2,21.4c-7.8,10.9-19.3,16.3-34.6,16.3c-15.3,0-26.5-4.5-33.8-13.6c-7.2-9.1-10.8-20.8-10.8-35.2
		c0-16.3,4-29,11.9-38c8-9.1,19-13.6,33-13.6c11.9,0,21.7,2.7,29.3,8c7.6,5.3,12.1,14.8,13.5,28.3H573.2z"/>
	<path fill="#FFFFFF" d="M615.4,215.9h24.4v69.3l31.3-35.8H702l-34,35.4l35.4,59.2H673l-23-40.6L639.8,314v29.9h-24.4V215.9z"/>
	<path fill="#FFFFFF" d="M776.7,250.9c6.6,3,12.1,7.7,16.4,14c3.9,5.6,6.4,12.2,7.6,19.6c0.7,4.4,0.9,10.6,0.8,18.8h-69.2
		c0.4,9.5,3.7,16.2,9.9,20c3.8,2.4,8.4,3.6,13.7,3.6c5.7,0,10.3-1.5,13.8-4.4c1.9-1.6,3.6-3.7,5.1-6.5h25.4
		c-0.7,5.6-3.7,11.4-9.2,17.2c-8.5,9.2-20.4,13.9-35.7,13.9c-12.6,0-23.8-3.9-33.5-11.7c-9.7-7.8-14.5-20.5-14.5-38
		c0-16.5,4.4-29.1,13.1-37.8s20-13.2,34-13.2C762.7,246.4,770.1,247.9,776.7,250.9z M739.6,272.3c-3.5,3.6-5.7,8.5-6.6,14.7h42.8
		c-0.5-6.6-2.7-11.6-6.6-15s-8.9-5.1-14.7-5.1C748,266.9,743.1,268.7,739.6,272.3z"/>
	<path fill="#FFFFFF" d="M864.5,250.5c4.5,2.5,8.1,6,10.9,10.5v-45.3h25.2v128.3h-24.1v-13.2c-3.5,5.6-7.6,9.7-12.1,12.3
		c-4.5,2.6-10.2,3.8-16.9,3.8c-11.1,0-20.4-4.5-28-13.5S808,312.9,808,298.9c0-16.2,3.7-29,11.2-38.2c7.5-9.3,17.4-13.9,29.9-13.9
		C854.9,246.7,860,247.9,864.5,250.5z M870.6,318.1c3.7-5.2,5.5-12,5.5-20.3c0-11.6-2.9-19.9-8.8-24.9c-3.6-3-7.8-4.5-12.5-4.5
		c-7.3,0-12.6,2.7-16,8.2c-3.4,5.5-5.1,12.3-5.1,20.4c0,8.8,1.7,15.8,5.2,21c3.5,5.3,8.7,7.9,15.7,7.9
		C861.6,326,866.9,323.4,870.6,318.1z"/>
</g>
<path fill="#FFFFFF" d="M199.5,232.9v93.6h-12.8h-7.4h-13.8v-93.6h13.1l0.5,0.1l0.7,0.1h0.7h4.9h0.7l0.7-0.1l0.6-0.1H199.5
	 M206.9,225.5h-20.2l-1.3,0.2h-4.9l-1.2-0.2H158V334h21.3v44.7h7.4V334h20.2V225.5L206.9,225.5z"/>
<g>
	<g>
		<rect x="87.7" y="181" fill="#FFFFFF" width="7.4" height="153"/>
		<path fill="#FFFFFF" d="M95.6,334.5h-8.4V180.6h8.4V334.5z M88.2,333.6h6.5V181.5h-6.5V333.6z"/>
	</g>
	<g>
		<rect x="67.5" y="225.7" fill="#FFFFFF" width="49" height="108.5"/>
		<path fill="#FFFFFF" d="M109,233.2v93.6H75v-93.6H109 M116.5,225.7h-49v108.5h49V225.7L116.5,225.7z"/>
	</g>
</g>
</svg>
