<svg xmlns="http://www.w3.org/2000/svg" baseProfile="tiny-ps" version="1.2" viewBox="0 0 65 93">
  <defs/>
  <path id="Layer" fill="#14a3d8" fill-rule="evenodd" d="M45.09 1.15l-.93.75-.94.66a12.17 12.17 0 00-4.94 6.56c-1.22 4.5-.19 9.84 2.98 15.47a49.27 49.27 0 003.5 5.05 43.72 43.72 0 004.16 4.5l1.31 1.41a53.98 53.98 0 0111.2 17.71 40.42 40.42 0 012.58 9.77 40.56 40.56 0 01.13 10.1 24.2 24.2 0 01-3.64 9.75 22.31 22.31 0 01-8.43 7.3 22.1 22.1 0 01-10.9 2.26c-1.31 0-3.08-.09-4.02-.28-1.58-.28-1.86-.28-1.86-.56 0-.29.09-.38.37-.47a36.63 36.63 0 0012.17-8.65 35.6 35.6 0 003.14-3.91c.94-1.78 1.22-3.19 1.22-5.72.01-.7-.01-1.39-.08-2.09a18.08 18.08 0 00-.95-4.06c-.24-.65-.52-1.29-.84-1.91l-.28.38-.75 1.12a26.67 26.67 0 01-6.81 6.47 20.72 20.72 0 01-5.97 3c-.71.22-1.43.41-2.16.56h-1.68l-.74-.19a1.58 1.58 0 01-.31-.09c-.1-.03-.19-.08-.29-.12a3.82 3.82 0 01-.52-.35c-.38-.19-.75-.66-1.22-1.59a3.68 3.68 0 01-.37-1.5l-.09-.38h.28l.46.1c1.12.37 2.24.46 3.08.37 4.11-.66 7.94-5.53 9.15-11.43a16.85 16.85 0 00.31-4.89 15.94 15.94 0 00-1.15-4.77 32.86 32.86 0 00-2.79-3.44 51.5 51.5 0 00-1.03-1.06c-.1.1-.47-.37-1.78-1.78l-3.13-3.43-3.14-3.44-3.12-3.45-3.12-3.45a13.36 13.36 0 01-2.71-6.94 18.93 18.93 0 01.77-8.37c.3-.89.67-1.76 1.1-2.59a11.4 11.4 0 012.52-3.38l.84-.84c0-.19-1.21 0-1.96.19l-3.36 1.21a57.1 57.1 0 00-8.71 5.01 56.12 56.12 0 00-7.72 6.43l-.75.65-.94.75c-.84.85-1.49 1.32-1.49 1.04l.37-.75A45.5 45.5 0 0118.56 6.45 45.24 45.24 0 0142.48.78l2.61.37zM32.02 4.9l-.56.19c-.19.19-.19.28-.19.47 0 .47.56.84 1.03.66.37-.29.47-.75.19-1.13l-.47-.19z"/>
</svg>
